<svg width="14" height="19" viewBox="0 0 14 19" fill="none" xmlns="http://www.w3.org/2000/svg">
<path d="M9.9792 8.2224C10.9528 7.2333 11.5109 5.90916 11.5392 4.5216C11.5379 3.32362 11.0618 2.17499 10.2152 1.32744C9.3685 0.479891 8.22038 0.00254012 7.0224 0H0V18.816H7.032C10.4544 18.816 13.2384 16.1952 13.2384 12.9792C13.2389 11.95 12.9278 10.9447 12.346 10.0957C11.7643 9.24665 10.9392 8.59358 9.9792 8.2224ZM6.8304 7.6416V9.5616H7.0224C9.096 9.5616 11.3424 10.6416 11.3424 13.0032C11.3424 15.1728 9.4224 16.9392 7.0224 16.9392H1.9008V1.9008H7.032C7.72669 1.90207 8.39257 2.1786 8.88379 2.66982C9.37501 3.16104 9.65154 3.82691 9.6528 4.5216C9.6528 5.9328 8.4816 7.6416 7.032 7.6416H6.8304Z" fill="#060808"/>
</svg>
