<svg id="Layer_1" data-name="Layer 1" xmlns="http://www.w3.org/2000/svg" viewBox="0 0 286.91 80.89">
    <defs>
        <style>.cls-1{fill:#f58220;}.cls-2{fill:#060808;}.cls-3{fill:#58595b;}</style>
    </defs>
    <path class="cls-1"
          d="M192.32,45.61A1.39,1.39,0,0,1,190.8,47h-1V44.35h1A1.34,1.34,0,0,1,192.32,45.61ZM176.5,43.27A4.46,4.46,0,0,0,173.84,49v0a4.31,4.31,0,0,0,2.26,2.48A4.44,4.44,0,0,0,182,49.38a4.47,4.47,0,0,0-5.53-6.11ZM201,44.44h-1.42V50.6h1.07a3.08,3.08,0,0,0,3.3-3.21A2.86,2.86,0,0,0,201,44.44Zm27.11,3.84h2.23l-1.07-3.57Zm13.33-6.06V52.74H183.69l-9.83,3.56-1.3-3.56h-11.2V42.22h11l9.83-3.57,1.3,3.57Zm-57.48,3.06a6.31,6.31,0,1,0-11.83,4.39h0a6.31,6.31,0,0,0,11.64.5A6.29,6.29,0,0,0,183.92,45.28Zm11.16,6.3-2.76-3.66a2.45,2.45,0,0,0,1.78-2.31c0-1.44-.93-2.61-3.12-2.59h-2.86L188,52h1.69V48.37h.53a.77.77,0,0,1,.63.35l2.5,3.48Zm10.52-4.1c0-2.73-1.88-4.5-4.72-4.46h-2.95l-.09,9H201A4.61,4.61,0,0,0,205.6,47.48ZM210.77,43h-1.69L209,52h1.7ZM222,43h-1.69l.08,6.68-4.27-7-1.52.53L214.52,52h1.69L216,45.33h.09l4.1,6.87,1.69-.53Zm11.24,8.65L230,43h-1.52L225,51.67l1.52.53,1.07-2.58h3.12l.89,2.58Z"/>
    <path d="M87.08,53.06a13.17,13.17,0,0,1-4.9-.91,12,12,0,0,1-6.68-6.54,13.63,13.63,0,0,1,0-10.15,12,12,0,0,1,6.68-6.54,13.67,13.67,0,0,1,9.81,0,12.4,12.4,0,0,1,4,2.58,12,12,0,0,1,2.7,4,13.5,13.5,0,0,1,0,10.15,12,12,0,0,1-2.7,4,12.23,12.23,0,0,1-4,2.58A13.07,13.07,0,0,1,87.08,53.06Zm0-2.3A9.85,9.85,0,0,0,91,50a9.63,9.63,0,0,0,5.2-5.38,11.54,11.54,0,0,0,0-8.13A9.63,9.63,0,0,0,91,31.09a10.39,10.39,0,0,0-7.9,0A9.34,9.34,0,0,0,80,33.24a9.89,9.89,0,0,0-2,3.23,11.54,11.54,0,0,0,0,8.13,9.89,9.89,0,0,0,2,3.23A9.34,9.34,0,0,0,83.14,50,9.86,9.86,0,0,0,87.08,50.76Z"/>
    <path d="M110,28.29h2.59V50.47h11.56v2.3H110Z"/>
    <path class="cls-2"
          d="M62.16,38.73a7.17,7.17,0,0,0,2-4.87,6,6,0,0,0-5.95-6H49V52.68h9.26A8,8,0,0,0,66.44,45,6.73,6.73,0,0,0,62.16,38.73ZM58,38v2.5h.25c2.73,0,5.68,1.41,5.68,4.53a5.45,5.45,0,0,1-5.68,5.18H51.5V30.4h6.76a3.45,3.45,0,0,1,3.45,3.46c0,1.86-1.54,4.11-3.45,4.11Z"/>
    <path d="M150.08,35.49a10.69,10.69,0,0,0-2.65-3.87,11.85,11.85,0,0,0-4.17-2.46,16.42,16.42,0,0,0-5.51-.87H134.4V30.6h3.17a14,14,0,0,1,4.71.72,8.93,8.93,0,0,1,3.35,2,8.2,8.2,0,0,1,2,3.15,12.79,12.79,0,0,1,0,8.05,8.2,8.2,0,0,1-2,3.15,8.93,8.93,0,0,1-3.35,2,14,14,0,0,1-4.71.72H134.4v2.3h3.35a16.48,16.48,0,0,0,5.52-.86,11.65,11.65,0,0,0,4.18-2.47,10.6,10.6,0,0,0,2.63-3.87,14.27,14.27,0,0,0,0-10.08Z"/>
    <path class="cls-3"
          d="M161.36,28.27h1.89a4.57,4.57,0,0,1,1.51.23,2.87,2.87,0,0,1,1.08.64,2.73,2.73,0,0,1,.66,1,3.79,3.79,0,0,1,.22,1.29,3.72,3.72,0,0,1-.22,1.27,2.82,2.82,0,0,1-.66,1,2.87,2.87,0,0,1-1.08.64,4.57,4.57,0,0,1-1.51.23h-1v2.08h-.88Zm1.84,5.51a3.81,3.81,0,0,0,1.2-.17,2.05,2.05,0,0,0,.8-.49,1.8,1.8,0,0,0,.45-.75,2.87,2.87,0,0,0,.14-.95,2.91,2.91,0,0,0-.14-1,1.83,1.83,0,0,0-.45-.74,2.05,2.05,0,0,0-.8-.49,3.53,3.53,0,0,0-1.2-.18h-1v4.72Z"/>
    <path class="cls-3"
          d="M170.65,36.75a2.87,2.87,0,0,1-1.07-.2,2.56,2.56,0,0,1-1.43-1.41,2.58,2.58,0,0,1-.21-1,2.61,2.61,0,0,1,.21-1,2.76,2.76,0,0,1,.57-.85,2.69,2.69,0,0,1,.86-.57,2.94,2.94,0,0,1,2.13,0,2.65,2.65,0,0,1,.85.57,2.76,2.76,0,0,1,.57.85,2.61,2.61,0,0,1,.21,1,2.58,2.58,0,0,1-.21,1,2.58,2.58,0,0,1-1.42,1.41A2.86,2.86,0,0,1,170.65,36.75Zm0-.75a2,2,0,0,0,.74-.14,1.69,1.69,0,0,0,1-1,2,2,0,0,0,.13-.75,2.09,2.09,0,0,0-.13-.76,1.69,1.69,0,0,0-1-1,2,2,0,0,0-.74-.14,2,2,0,0,0-.75.14,1.72,1.72,0,0,0-.58.4,1.75,1.75,0,0,0-.38.61,2.1,2.1,0,0,0-.14.76,2,2,0,0,0,.14.75,1.75,1.75,0,0,0,.38.61,1.72,1.72,0,0,0,.58.4A2,2,0,0,0,170.65,36Z"/>
    <path class="cls-3"
          d="M174.42,31.55h.94l1.1,2.81.09.27a1.21,1.21,0,0,1,.08.25l.06.27a2.68,2.68,0,0,1,.07-.27c0-.08.05-.17.08-.25s.07-.18.11-.27l1.33-2.88h.11l1.36,2.87a4.91,4.91,0,0,1,.19.53,1.38,1.38,0,0,1,.08.27,1.31,1.31,0,0,1,.06-.27,3.27,3.27,0,0,1,.17-.53l1.1-2.8h.87l-2.12,5.21H180l-1.4-3.06a2,2,0,0,1-.19-.5,1.22,1.22,0,0,1-.06-.26,2.68,2.68,0,0,1-.07.27l-.09.24a1.84,1.84,0,0,1-.09.25l-1.44,3.06h-.12Z"/>
    <path class="cls-3"
          d="M184.17,34.39a1.84,1.84,0,0,0,.57,1.18,1.82,1.82,0,0,0,1.33.45,2.18,2.18,0,0,0,1-.19,1.89,1.89,0,0,0,.64-.48l.53.51a2.83,2.83,0,0,1-.87.65,3,3,0,0,1-1.27.24,3.17,3.17,0,0,1-1.14-.2,2.48,2.48,0,0,1-1.43-1.41,2.75,2.75,0,0,1-.19-1,2.79,2.79,0,0,1,.2-1,2.73,2.73,0,0,1,.56-.85,2.56,2.56,0,0,1,.83-.57,2.84,2.84,0,0,1,1-.2,2.6,2.6,0,0,1,1.1.22,2.29,2.29,0,0,1,.82.62,2.6,2.6,0,0,1,.5.93,3.51,3.51,0,0,1,.14,1.18Zm3.48-.66a2,2,0,0,0-.15-.61,1.29,1.29,0,0,0-.33-.5,1.45,1.45,0,0,0-.52-.33,1.86,1.86,0,0,0-.7-.12,1.69,1.69,0,0,0-1.21.43,1.85,1.85,0,0,0-.56,1.13Z"/>
    <path class="cls-3"
          d="M190.3,31.55h.86l0,1a1.77,1.77,0,0,1,.65-.85,1.59,1.59,0,0,1,.85-.25,2,2,0,0,1,.5.06,1.21,1.21,0,0,1,.38.18l-.33.75a.87.87,0,0,0-.29-.14,1.22,1.22,0,0,0-.41-.06,1.25,1.25,0,0,0-.93.41,1.85,1.85,0,0,0-.39,1.31v2.69h-.86Z"/>
    <path class="cls-3"
          d="M195.42,34.39a1.84,1.84,0,0,0,.57,1.18,1.82,1.82,0,0,0,1.33.45,2.23,2.23,0,0,0,1-.19,2.11,2.11,0,0,0,.64-.48l.53.51a2.76,2.76,0,0,1-.88.65,3,3,0,0,1-1.27.24,3.17,3.17,0,0,1-1.14-.2,2.61,2.61,0,0,1-.87-.56,2.45,2.45,0,0,1-.55-.85,2.75,2.75,0,0,1-.2-1,2.79,2.79,0,0,1,.2-1,2.92,2.92,0,0,1,.56-.85,2.5,2.5,0,0,1,.84-.57,2.75,2.75,0,0,1,1-.2,2.57,2.57,0,0,1,1.1.22,2.2,2.2,0,0,1,.82.62,2.6,2.6,0,0,1,.5.93,3.51,3.51,0,0,1,.14,1.18Zm3.48-.66a2,2,0,0,0-.14-.61,1.56,1.56,0,0,0-.33-.5,1.65,1.65,0,0,0-.52-.33,1.92,1.92,0,0,0-.71-.12,1.67,1.67,0,0,0-1.2.43,1.8,1.8,0,0,0-.56,1.13Z"/>
    <path class="cls-3"
          d="M203.7,36.75a2.44,2.44,0,0,1-1-.2,2.47,2.47,0,0,1-.79-.56,2.6,2.6,0,0,1-.52-.83,2.87,2.87,0,0,1-.19-1.07,2.76,2.76,0,0,1,.19-1.05,2.54,2.54,0,0,1,.52-.84,2.34,2.34,0,0,1,1.75-.76,2.1,2.1,0,0,1,1.2.32,2.35,2.35,0,0,1,.75.84V27.75h.86v8.9h-.86l0-1.09a2.2,2.2,0,0,1-.77.86A2.16,2.16,0,0,1,203.7,36.75Zm.17-.75a2,2,0,0,0,.74-.14,1.78,1.78,0,0,0,.57-.4,1.84,1.84,0,0,0,.37-.6,2.2,2.2,0,0,0,.13-.78,2.13,2.13,0,0,0-.13-.76,1.84,1.84,0,0,0-.37-.6,1.92,1.92,0,0,0-.57-.39,2,2,0,0,0-.74-.14,1.67,1.67,0,0,0-1.27.53,1.66,1.66,0,0,0-.36.6,2.37,2.37,0,0,0-.12.76,2,2,0,0,0,.47,1.38A1.62,1.62,0,0,0,203.87,36Z"/>
    <path class="cls-3"
          d="M214.7,36.75a2.16,2.16,0,0,1-1.2-.33,2.12,2.12,0,0,1-.77-.86l0,1.09h-.86v-8.9h.86V32.6a2.23,2.23,0,0,1,.77-.84,2.11,2.11,0,0,1,1.19-.32,2.34,2.34,0,0,1,1.75.76A2.56,2.56,0,0,1,217,33a3,3,0,0,1,.19,1.05,3.08,3.08,0,0,1-.19,1.07,2.62,2.62,0,0,1-.53.83,2.43,2.43,0,0,1-.78.56A2.48,2.48,0,0,1,214.7,36.75Zm-.18-.75a1.64,1.64,0,0,0,1.29-.54,2,2,0,0,0,.47-1.38,2.37,2.37,0,0,0-.12-.76,1.81,1.81,0,0,0-.36-.6,2,2,0,0,0-.55-.39,2,2,0,0,0-1.46,0,1.85,1.85,0,0,0-.58.39,1.66,1.66,0,0,0-.36.6,2.13,2.13,0,0,0-.13.76,2.2,2.2,0,0,0,.13.78,1.66,1.66,0,0,0,.36.6,1.72,1.72,0,0,0,.58.4A1.9,1.9,0,0,0,214.52,36Z"/>
    <path class="cls-3"
          d="M220.42,36.22l-2.17-4.67h.95l1.44,3.17a1.69,1.69,0,0,1,.1.27c0,.1.06.19.08.28l.06.31a1.55,1.55,0,0,1,.06-.31A1.64,1.64,0,0,1,221,35a1.08,1.08,0,0,1,.1-.27l1.33-3.17h.89L220,39.27h-.89Z"/>
</svg>